<svg width="325" height="111"  fill="none" xmlns="http://www.w3.org/2000/svg">
<path d="M3.71032 8.95924V18.4843V35.0498L2.0376 56.5448L3.71032 77.8104L2.0376 104.936L20.8814 110.422L41.2486 109.594H79.4089L108.847 110.422H147.229H200.762H241.165H293.688L319.95 103.796L325 89.8441V59.8979V26.2387L319.95 1.91895H287.628H241.165H200.762L102.786 3.98962H36.1222H20.8814L3.71032 8.95924Z" fill="#D3D7E1"/>
<path d="M1.66256 7.30071V16.6061V32.7893L0 53.7884L1.66256 74.5633L0 101.063L18.7293 106.423L38.9728 105.614H76.9011L106.16 106.423H144.309H197.517H237.674H289.878L315.98 99.9496L321 86.3194V57.0641V24.1815L315.98 0.422852H283.855H237.674H197.517L100.137 2.44575H33.8775H18.7293L1.66256 7.30071Z" fill="white"/>
</svg>
