<svg width="115" height="34" viewBox="0 0 115 34" fill="none" xmlns="http://www.w3.org/2000/svg">
<path d="M8.61911 17.018C6.32711 17.018 4.55111 16.892 3.29111 16.64C2.96711 10.628 2.67311 6.992 2.40911 5.732L1.86911 5.858C1.58111 5.918 1.30511 5.984 1.04111 6.056C0.777109 6.116 0.495109 6.206 0.195109 6.326L0.177109 5.714C0.177109 5.51 0.399109 5.324 0.843109 5.156C1.28711 4.976 1.82111 4.838 2.44511 4.742C3.08111 4.634 3.64511 4.58 4.13711 4.58C4.67711 4.58 5.29511 4.676 5.99111 4.868C6.69911 5.06 7.30511 5.348 7.80911 5.732C8.31311 6.104 8.56511 6.548 8.56511 7.064C8.56511 7.652 8.33711 8.174 7.88111 8.63C7.43711 9.074 6.85511 9.392 6.13511 9.584C7.19111 9.764 8.17511 10.088 9.08711 10.556C9.99911 11.012 10.7311 11.582 11.2831 12.266C11.8351 12.938 12.1111 13.664 12.1111 14.444C12.1111 15.344 11.7631 15.998 11.0671 16.406C10.3711 16.814 9.55511 17.018 8.61911 17.018ZM8.15111 15.992C9.03911 15.992 9.72311 15.896 10.2031 15.704C10.6831 15.5 10.9231 15.068 10.9231 14.408C10.9231 13.712 10.7131 13.13 10.2931 12.662C9.88511 12.182 9.39911 11.81 8.83511 11.546C8.28311 11.27 7.59311 10.982 6.76511 10.682C6.10511 10.454 5.61311 10.256 5.28911 10.088C4.97711 9.908 4.82111 9.71 4.82111 9.494C4.82111 9.338 4.89911 9.218 5.05511 9.134C5.21111 9.05 5.48711 8.93 5.88311 8.774C6.42311 8.594 6.84311 8.402 7.14311 8.198C7.45511 7.982 7.61111 7.682 7.61111 7.298C7.61111 6.734 7.26911 6.302 6.58511 6.002C5.90111 5.69 5.13311 5.534 4.28111 5.534C4.04111 5.534 3.75311 5.558 3.41711 5.606C3.72911 7.622 3.94511 9.32 4.06511 10.7C4.18511 12.068 4.26911 13.658 4.31711 15.47C4.48511 15.638 4.91111 15.764 5.59511 15.848C6.27911 15.932 7.13111 15.98 8.15111 15.992ZM17.9944 17C16.7464 17 15.6604 16.784 14.7364 16.352C13.8244 15.908 13.3684 15.134 13.3684 14.03C13.3684 13.634 13.4884 13.25 13.7284 12.878C13.9684 12.506 14.3224 12.206 14.7904 11.978C15.2584 11.738 15.8284 11.618 16.5004 11.618C17.0164 11.618 17.4544 11.642 17.8144 11.69C18.1744 11.738 18.5884 11.87 19.0564 12.086C19.5244 12.302 20.0104 12.644 20.5144 13.112C20.3224 12.284 20.0344 11.558 19.6504 10.934C19.2664 10.31 18.8344 9.83 18.3544 9.494C17.8864 9.146 17.4244 8.972 16.9684 8.972C16.7524 8.972 16.5484 9.014 16.3564 9.098C16.1764 9.17 15.9544 9.278 15.6904 9.422C15.3904 9.614 15.1684 9.71 15.0244 9.71C14.9644 9.71 14.9104 9.692 14.8624 9.656C14.8264 9.608 14.8084 9.554 14.8084 9.494C14.8084 9.014 15.0184 8.642 15.4384 8.378C15.8704 8.114 16.3924 7.994 17.0044 8.018C17.8444 8.066 18.6124 8.426 19.3084 9.098C20.0044 9.758 20.5504 10.58 20.9464 11.564C21.3544 12.548 21.5584 13.514 21.5584 14.462C21.5584 14.618 21.5464 14.84 21.5224 15.128L20.9464 15.092C20.4904 14.168 19.9024 13.514 19.1824 13.13C18.4744 12.734 17.7604 12.536 17.0404 12.536C16.1164 12.536 15.4564 12.674 15.0604 12.95C14.6644 13.226 14.4664 13.628 14.4664 14.156C14.4664 14.708 14.7424 15.152 15.2944 15.488C15.8464 15.824 16.5544 15.992 17.4184 15.992C17.8984 15.992 18.2824 15.968 18.5704 15.92C18.8584 15.86 19.1584 15.782 19.4704 15.686C19.7224 15.602 19.9444 15.542 20.1364 15.506C20.3284 15.47 20.5744 15.452 20.8744 15.452C21.2104 15.452 21.4204 15.476 21.5044 15.524C21.6004 15.572 21.6484 15.68 21.6484 15.848C21.6484 15.968 21.4024 16.118 20.9104 16.298C20.4184 16.478 19.8664 16.64 19.2544 16.784C18.6424 16.928 18.2224 17 17.9944 17ZM23.1791 14.876C23.3471 14.744 23.5091 14.678 23.6651 14.678C23.8091 14.678 23.9471 14.72 24.0791 14.804C24.2231 14.888 24.3671 14.996 24.5111 15.128C24.6551 15.248 24.7691 15.338 24.8531 15.398C25.1291 15.614 25.5071 15.782 25.9871 15.902C26.4671 16.022 26.9771 16.082 27.5171 16.082C28.1291 16.082 28.6751 15.968 29.1551 15.74C29.6471 15.5 29.8931 15.182 29.8931 14.786C29.8931 14.426 29.7611 14.144 29.4971 13.94C29.2331 13.724 28.9151 13.568 28.5431 13.472C28.1711 13.376 27.6791 13.286 27.0671 13.202C26.2391 13.106 25.5791 12.986 25.0871 12.842C24.6071 12.698 24.2231 12.464 23.9351 12.14C23.6471 11.804 23.5031 11.336 23.5031 10.736C23.5031 10.088 23.8091 9.608 24.4211 9.296C25.0331 8.972 25.7351 8.81 26.5271 8.81C27.2471 8.81 27.8591 8.966 28.3631 9.278C28.8791 9.578 29.1431 10.01 29.1551 10.574C29.1791 10.898 29.1311 11.156 29.0111 11.348C28.8911 11.528 28.7471 11.618 28.5791 11.618C28.4831 11.618 28.3991 11.582 28.3271 11.51C28.2671 11.438 28.2371 11.342 28.2371 11.222C28.2371 11.03 28.3031 10.82 28.4351 10.592C28.3751 10.304 28.1771 10.088 27.8411 9.944C27.5171 9.8 27.1271 9.728 26.6711 9.728C25.9991 9.728 25.4651 9.854 25.0691 10.106C24.6731 10.346 24.4751 10.634 24.4751 10.97C24.4751 11.33 24.6191 11.606 24.9071 11.798C25.1951 11.99 25.5431 12.128 25.9511 12.212C26.3711 12.284 26.9651 12.356 27.7331 12.428C28.3691 12.512 28.8851 12.614 29.2811 12.734C29.6891 12.854 30.0311 13.088 30.3071 13.436C30.5831 13.772 30.7211 14.258 30.7211 14.894C30.7211 15.554 30.4151 16.076 29.8031 16.46C29.1911 16.832 28.4591 17.018 27.6071 17.018C26.5151 17.018 25.5371 16.832 24.6731 16.46C23.8211 16.088 23.3231 15.56 23.1791 14.876ZM33.4533 17.018C33.1773 17.018 32.9553 16.616 32.7873 15.812C32.6193 14.996 32.5113 14.294 32.4633 13.706C32.4153 13.118 32.3493 12.188 32.2653 10.916C32.2533 10.712 32.2473 10.448 32.2473 10.124C32.2473 9.716 32.2773 9.434 32.3373 9.278C32.4093 9.122 32.5233 9.044 32.6793 9.044C32.8113 9.044 32.9133 9.074 32.9853 9.134C33.0693 9.182 33.1413 9.266 33.2013 9.386L33.1833 10.106C33.1833 10.874 33.2193 11.6 33.2913 12.284C33.3753 12.968 33.5013 13.886 33.6693 15.038C33.7653 15.542 33.8313 15.956 33.8673 16.28C33.8913 16.448 33.8613 16.616 33.7773 16.784C33.6933 16.94 33.5853 17.018 33.4533 17.018ZM33.0033 7.118C32.7393 7.118 32.5413 7.016 32.4093 6.812C32.2893 6.608 32.2293 6.356 32.2293 6.056C32.2293 5.924 32.2353 5.828 32.2473 5.768C32.2353 5.576 32.3433 5.48 32.5713 5.48C32.7393 5.48 32.9073 5.522 33.0753 5.606C33.2553 5.678 33.3093 5.732 33.2373 5.768C33.3573 6.08 33.4173 6.326 33.4173 6.506C33.4173 6.662 33.3813 6.788 33.3093 6.884C33.2373 6.968 33.1353 7.046 33.0033 7.118ZM39.9097 17.018C38.5057 17.018 37.4137 16.7 36.6337 16.064C35.8657 15.416 35.4817 14.42 35.4817 13.076C35.4817 12.392 35.6497 11.744 35.9857 11.132C36.3337 10.508 36.7957 10.01 37.3717 9.638C37.9597 9.254 38.5897 9.062 39.2617 9.062C39.9457 9.062 40.5277 9.212 41.0077 9.512C41.4877 9.8 41.7277 10.22 41.7277 10.772C41.7277 11.156 41.6557 11.432 41.5117 11.6C41.3797 11.756 41.2297 11.834 41.0617 11.834C41.0617 11.258 40.9057 10.79 40.5937 10.43C40.2817 10.07 39.8377 9.89 39.2617 9.89C38.6857 9.89 38.1877 10.046 37.7677 10.358C37.3477 10.658 37.0237 11.06 36.7957 11.564C36.5797 12.056 36.4717 12.572 36.4717 13.112C36.4717 14.252 36.8557 15.026 37.6237 15.434C38.4037 15.842 39.4297 16.046 40.7017 16.046C41.1337 16.046 41.6977 16.022 42.3937 15.974C42.4177 15.974 42.4717 15.998 42.5557 16.046C42.6397 16.094 42.7057 16.124 42.7537 16.136V16.244C42.7537 16.592 42.4477 16.808 41.8357 16.892C41.2237 16.976 40.5817 17.018 39.9097 17.018ZM49.1858 17.018C48.9098 17.018 48.6878 16.616 48.5198 15.812C48.3518 14.996 48.2438 14.294 48.1958 13.706C48.1478 13.118 48.0818 12.188 47.9978 10.916C47.9858 10.712 47.9798 10.448 47.9798 10.124C47.9798 9.716 48.0098 9.434 48.0698 9.278C48.1418 9.122 48.2558 9.044 48.4118 9.044C48.5438 9.044 48.6458 9.074 48.7178 9.134C48.8018 9.182 48.8738 9.266 48.9338 9.386L48.9158 10.106C48.9158 10.874 48.9518 11.6 49.0238 12.284C49.1078 12.968 49.2338 13.886 49.4018 15.038C49.4978 15.542 49.5638 15.956 49.5998 16.28C49.6238 16.448 49.5938 16.616 49.5098 16.784C49.4258 16.94 49.3178 17.018 49.1858 17.018ZM48.7358 7.118C48.4718 7.118 48.2738 7.016 48.1418 6.812C48.0218 6.608 47.9618 6.356 47.9618 6.056C47.9618 5.924 47.9678 5.828 47.9798 5.768C47.9678 5.576 48.0758 5.48 48.3038 5.48C48.4718 5.48 48.6398 5.522 48.8078 5.606C48.9878 5.678 49.0418 5.732 48.9698 5.768C49.0898 6.08 49.1498 6.326 49.1498 6.506C49.1498 6.662 49.1138 6.788 49.0418 6.884C48.9698 6.968 48.8678 7.046 48.7358 7.118ZM52.9241 17.072C52.7561 17.12 52.6601 17.144 52.6361 17.144C52.5401 17.144 52.4381 17.096 52.3301 17C51.9341 16.412 51.6461 15.386 51.4661 13.922C51.2981 12.458 51.2141 11.198 51.2141 10.142C51.2141 9.974 51.3341 9.89 51.5741 9.89C51.9341 9.89 52.1141 10.088 52.1141 10.484C52.1141 10.592 52.1081 10.682 52.0961 10.754C52.2041 10.502 52.4081 10.244 52.7081 9.98C53.0081 9.716 53.3561 9.494 53.7521 9.314C54.1481 9.134 54.5501 9.044 54.9581 9.044C56.2421 9.044 57.1781 9.614 57.7661 10.754C58.3541 11.882 58.6481 13.286 58.6481 14.966C58.6481 15.542 58.5881 16.004 58.4681 16.352C58.3481 16.688 58.1861 16.856 57.9821 16.856C57.7661 16.856 57.6581 16.79 57.6581 16.658C57.7421 16.022 57.7841 15.398 57.7841 14.786C57.7841 13.238 57.5141 12.068 56.9741 11.276C56.4341 10.472 55.7201 10.07 54.8321 10.07C54.4001 10.07 53.9801 10.178 53.5721 10.394C53.1761 10.61 52.8521 10.91 52.6001 11.294C52.3601 11.678 52.2401 12.116 52.2401 12.608C52.2401 13.16 52.2701 13.64 52.3301 14.048C52.3901 14.456 52.4861 14.948 52.6181 15.524C52.7621 16.088 52.8641 16.604 52.9241 17.072ZM64.5191 4.328C65.0591 4.328 65.5751 4.466 66.0671 4.742C66.5591 5.006 66.9551 5.348 67.2551 5.768C67.5671 6.188 67.7231 6.608 67.7231 7.028H67.3271C67.1471 7.028 66.9851 6.974 66.8411 6.866C66.7091 6.758 66.5351 6.584 66.3191 6.344C66.0071 6.008 65.7251 5.756 65.4731 5.588C65.2331 5.42 64.9211 5.336 64.5371 5.336C63.8771 5.336 63.3251 5.642 62.8811 6.254C62.4371 6.854 62.1731 7.562 62.0891 8.378C62.0531 8.75 62.0351 9.122 62.0351 9.494C62.0351 10.106 62.0771 10.67 62.1611 11.186C62.3171 11.21 62.6831 11.24 63.2591 11.276C63.8351 11.312 64.3091 11.342 64.6811 11.366C64.8131 11.366 65.0711 11.378 65.4551 11.402C65.5751 11.402 65.6591 11.432 65.7071 11.492C65.7671 11.54 65.7971 11.63 65.7971 11.762C65.7971 12.086 65.4311 12.248 64.6991 12.248C64.0631 12.248 63.2651 12.134 62.3051 11.906C62.4371 12.446 62.6051 12.944 62.8091 13.4C63.0131 13.844 63.2771 14.378 63.6011 15.002C63.8291 15.446 63.9971 15.794 64.1051 16.046C64.2131 16.286 64.2671 16.49 64.2671 16.658C64.2671 16.79 64.2251 16.886 64.1411 16.946C64.0571 16.994 63.9371 17.018 63.7811 17.018C63.4571 17.018 63.1511 16.676 62.8631 15.992C62.5871 15.296 62.2691 14.336 61.9091 13.112L61.5851 12.05C61.3211 12.074 60.9911 12.146 60.5951 12.266C60.5591 12.278 60.4331 12.314 60.2171 12.374C60.0131 12.422 59.8271 12.446 59.6591 12.446C59.4671 12.446 59.3711 12.332 59.3711 12.104C59.3711 11.804 59.5271 11.606 59.8391 11.51C60.1511 11.402 60.4451 11.342 60.7211 11.33C60.9971 11.306 61.1711 11.288 61.2431 11.276C61.2191 10.82 61.2071 10.412 61.2071 10.052C61.2071 8.504 61.4411 7.166 61.9091 6.038C62.3891 4.898 63.2591 4.328 64.5191 4.328ZM71.0944 17.018C70.3864 17.018 69.7444 16.862 69.1684 16.55C68.6044 16.226 68.1604 15.782 67.8364 15.218C67.5244 14.642 67.3684 13.988 67.3684 13.256C67.3684 12.056 67.8064 11.162 68.6824 10.574C69.5704 9.986 70.6564 9.692 71.9404 9.692C72.5284 9.692 73.0744 9.836 73.5784 10.124C74.0944 10.412 74.5084 10.826 74.8204 11.366C75.1324 11.906 75.2884 12.53 75.2884 13.238C75.2884 14.006 75.0904 14.678 74.6944 15.254C74.2984 15.818 73.7764 16.256 73.1284 16.568C72.4924 16.868 71.8144 17.018 71.0944 17.018ZM70.8964 15.992C72.0124 15.992 72.8584 15.74 73.4344 15.236C74.0104 14.732 74.2984 13.994 74.2984 13.022C74.2984 12.362 74.0704 11.792 73.6144 11.312C73.1704 10.832 72.5464 10.592 71.7424 10.592C71.2024 10.592 70.6564 10.694 70.1044 10.898C69.5524 11.102 69.0964 11.408 68.7364 11.816C68.3764 12.224 68.1964 12.716 68.1964 13.292C68.1964 13.772 68.3164 14.222 68.5564 14.642C68.7964 15.05 69.1204 15.38 69.5284 15.632C69.9484 15.872 70.4044 15.992 70.8964 15.992Z" fill="#233869"/>
<path d="M88.2772 12.5137C92.6365 12.3506 97.0966 13.2231 100.996 15.2076C102.702 16.0778 104.261 17.2912 105.238 18.9672C106.196 20.6114 106.648 22.489 106.773 24.3751C106.948 26.9759 106.491 29.5882 106.065 32.1429C106.01 32.4768 106.313 32.7925 106.632 32.821C106.991 32.853 107.255 32.588 107.31 32.254C108.039 27.8816 108.743 23.1404 106.678 19.0054C104.689 15.0253 100.272 13.1301 96.1704 12.0988C93.6271 11.4602 91.0124 11.1716 88.3909 11.2689C88.0509 11.2812 87.7429 11.4696 87.7103 11.8356C87.6832 12.1394 87.9373 12.526 88.2772 12.5137Z" fill="#233869"/>
<path d="M106.972 31.5937C105.076 29.414 103.182 27.2345 101.286 25.0573C100.758 24.4504 99.7979 25.2508 100.326 25.8601C102.222 28.0373 104.116 30.2143 106.012 32.3941C106.541 33.0009 107.501 32.2006 106.972 31.5937Z" fill="#233869"/>
<path d="M107.246 32.6905C109.368 30.6862 111.489 28.6844 113.611 26.6801C114.195 26.1298 113.394 25.1674 112.808 25.7199C110.686 27.7242 108.565 29.7261 106.443 31.7304C105.862 32.2834 106.66 33.2456 107.246 32.6905Z" fill="#233869"/>
</svg>
