<svg width="103" height="34" viewBox="0 0 103 34" fill="none" xmlns="http://www.w3.org/2000/svg">
<path d="M10.0565 10.0069C10.0565 10.5229 10.0805 11.0269 10.1285 11.5189C10.1885 11.9989 10.2785 12.6769 10.3985 13.5529C10.6265 15.0289 10.7405 16.2049 10.7405 17.0809C10.7405 17.2609 10.7045 17.3689 10.6325 17.4049C10.5605 17.4409 10.4765 17.4589 10.3805 17.4589C10.2845 17.4589 10.2185 17.4589 10.1825 17.4589C10.0145 17.4589 9.88253 17.4409 9.78653 17.4049C9.69053 17.3569 9.61253 17.2489 9.55253 17.0809L9.17453 12.1849C9.13853 11.6929 9.09053 10.7029 9.03053 9.21485C8.51453 9.81485 8.00453 10.2709 7.50053 10.5829C6.99653 10.8829 6.48053 11.0329 5.95253 11.0329C5.19653 11.0329 4.44053 10.4989 3.68453 9.43085C3.72053 9.61085 3.73853 9.85085 3.73853 10.1509C3.73853 10.4509 3.73853 10.6249 3.73853 10.6729L3.72053 16.5589C3.72053 16.6789 3.65453 16.7749 3.52253 16.8469C3.40253 16.9069 3.27653 16.9369 3.14453 16.9369C2.97653 16.9369 2.85653 16.8769 2.78453 16.7569C2.72453 16.6249 2.67653 16.4509 2.64053 16.2349V13.7149C2.64053 13.3309 2.65253 12.8989 2.67653 12.4189C2.70053 11.9389 2.71853 11.6029 2.73053 11.4109C2.79053 10.5709 2.82053 9.80885 2.82053 9.12485C2.82053 8.92085 2.78453 8.72885 2.71253 8.54885C2.64053 8.35685 2.53253 8.14685 2.38853 7.91885C2.24453 7.69085 2.13653 7.49285 2.06453 7.32485C2.00453 7.15685 1.97453 6.97685 1.97453 6.78485C1.97453 6.55685 2.08853 6.44285 2.31653 6.44285C2.67653 6.44285 2.97053 6.57485 3.19853 6.83885C3.42653 7.09085 3.67253 7.47485 3.93653 7.99085C4.16453 8.41085 4.36253 8.74085 4.53053 8.98085C4.69853 9.22085 4.91453 9.43085 5.17853 9.61085C5.44253 9.77885 5.76053 9.86285 6.13253 9.86285C6.67253 9.88685 7.11653 9.78485 7.46453 9.55685C7.81253 9.31685 8.07653 9.02885 8.25653 8.69285C8.43653 8.35685 8.61053 7.94885 8.77853 7.46885C8.92253 7.07285 9.04853 6.79685 9.15653 6.64085C9.26453 6.47285 9.39653 6.40685 9.55253 6.44285C9.91253 6.41885 10.0925 6.74885 10.0925 7.43285C10.0925 8.00885 10.0865 8.43485 10.0745 8.71085L10.0565 10.0069ZM13.7541 17.4409C13.4781 17.4409 13.2561 17.0389 13.0881 16.2349C12.9201 15.4189 12.8121 14.7169 12.7641 14.1289C12.7161 13.5409 12.6501 12.6109 12.5661 11.3389C12.5541 11.1349 12.5481 10.8709 12.5481 10.5469C12.5481 10.1389 12.5781 9.85685 12.6381 9.70085C12.7101 9.54485 12.8241 9.46685 12.9801 9.46685C13.1121 9.46685 13.2141 9.49685 13.2861 9.55685C13.3701 9.60485 13.4421 9.68885 13.5021 9.80885L13.4841 10.5289C13.4841 11.2969 13.5201 12.0229 13.5921 12.7069C13.6761 13.3909 13.8021 14.3089 13.9701 15.4609C14.0661 15.9649 14.1321 16.3789 14.1681 16.7029C14.1921 16.8709 14.1621 17.0389 14.0781 17.2069C13.9941 17.3629 13.8861 17.4409 13.7541 17.4409ZM13.3041 7.54085C13.0401 7.54085 12.8421 7.43885 12.7101 7.23485C12.5901 7.03085 12.5301 6.77885 12.5301 6.47885C12.5301 6.34685 12.5361 6.25085 12.5481 6.19085C12.5361 5.99885 12.6441 5.90285 12.8721 5.90285C13.0401 5.90285 13.2081 5.94485 13.3761 6.02885C13.5561 6.10085 13.6101 6.15485 13.5381 6.19085C13.6581 6.50285 13.7181 6.74885 13.7181 6.92885C13.7181 7.08485 13.6821 7.21085 13.6101 7.30685C13.5381 7.39085 13.4361 7.46885 13.3041 7.54085ZM15.8725 15.2989C16.0405 15.1669 16.2025 15.1009 16.3585 15.1009C16.5025 15.1009 16.6405 15.1429 16.7725 15.2269C16.9165 15.3109 17.0605 15.4189 17.2045 15.5509C17.3485 15.6709 17.4625 15.7609 17.5465 15.8209C17.8225 16.0369 18.2005 16.2049 18.6805 16.3249C19.1605 16.4449 19.6705 16.5049 20.2105 16.5049C20.8225 16.5049 21.3685 16.3909 21.8485 16.1629C22.3405 15.9229 22.5865 15.6049 22.5865 15.2089C22.5865 14.8489 22.4545 14.5669 22.1905 14.3629C21.9265 14.1469 21.6085 13.9909 21.2365 13.8949C20.8645 13.7989 20.3725 13.7089 19.7605 13.6249C18.9325 13.5289 18.2725 13.4089 17.7805 13.2649C17.3005 13.1209 16.9165 12.8869 16.6285 12.5629C16.3405 12.2269 16.1965 11.7589 16.1965 11.1589C16.1965 10.5109 16.5025 10.0309 17.1145 9.71885C17.7265 9.39485 18.4285 9.23285 19.2205 9.23285C19.9405 9.23285 20.5525 9.38885 21.0565 9.70085C21.5725 10.0009 21.8365 10.4329 21.8485 10.9969C21.8725 11.3209 21.8245 11.5789 21.7045 11.7709C21.5845 11.9509 21.4405 12.0409 21.2725 12.0409C21.1765 12.0409 21.0925 12.0049 21.0205 11.9329C20.9605 11.8609 20.9305 11.7649 20.9305 11.6449C20.9305 11.4529 20.9965 11.2429 21.1285 11.0149C21.0685 10.7269 20.8705 10.5109 20.5345 10.3669C20.2105 10.2229 19.8205 10.1509 19.3645 10.1509C18.6925 10.1509 18.1585 10.2769 17.7625 10.5289C17.3665 10.7689 17.1685 11.0569 17.1685 11.3929C17.1685 11.7529 17.3125 12.0289 17.6005 12.2209C17.8885 12.4129 18.2365 12.5509 18.6445 12.6349C19.0645 12.7069 19.6585 12.7789 20.4265 12.8509C21.0625 12.9349 21.5785 13.0369 21.9745 13.1569C22.3825 13.2769 22.7245 13.5109 23.0005 13.8589C23.2765 14.1949 23.4145 14.6809 23.4145 15.3169C23.4145 15.9769 23.1085 16.4989 22.4965 16.8829C21.8845 17.2549 21.1525 17.4409 20.3005 17.4409C19.2085 17.4409 18.2305 17.2549 17.3665 16.8829C16.5145 16.5109 16.0165 15.9829 15.8725 15.2989ZM25.0307 15.2989C25.1987 15.1669 25.3607 15.1009 25.5167 15.1009C25.6607 15.1009 25.7987 15.1429 25.9307 15.2269C26.0747 15.3109 26.2187 15.4189 26.3627 15.5509C26.5067 15.6709 26.6207 15.7609 26.7047 15.8209C26.9807 16.0369 27.3587 16.2049 27.8387 16.3249C28.3187 16.4449 28.8287 16.5049 29.3687 16.5049C29.9807 16.5049 30.5267 16.3909 31.0067 16.1629C31.4987 15.9229 31.7447 15.6049 31.7447 15.2089C31.7447 14.8489 31.6127 14.5669 31.3487 14.3629C31.0847 14.1469 30.7667 13.9909 30.3947 13.8949C30.0227 13.7989 29.5307 13.7089 28.9187 13.6249C28.0907 13.5289 27.4307 13.4089 26.9387 13.2649C26.4587 13.1209 26.0747 12.8869 25.7867 12.5629C25.4987 12.2269 25.3547 11.7589 25.3547 11.1589C25.3547 10.5109 25.6607 10.0309 26.2727 9.71885C26.8847 9.39485 27.5867 9.23285 28.3787 9.23285C29.0987 9.23285 29.7107 9.38885 30.2147 9.70085C30.7307 10.0009 30.9947 10.4329 31.0067 10.9969C31.0307 11.3209 30.9827 11.5789 30.8627 11.7709C30.7427 11.9509 30.5987 12.0409 30.4307 12.0409C30.3347 12.0409 30.2507 12.0049 30.1787 11.9329C30.1187 11.8609 30.0887 11.7649 30.0887 11.6449C30.0887 11.4529 30.1547 11.2429 30.2867 11.0149C30.2267 10.7269 30.0287 10.5109 29.6927 10.3669C29.3687 10.2229 28.9787 10.1509 28.5227 10.1509C27.8507 10.1509 27.3167 10.2769 26.9207 10.5289C26.5247 10.7689 26.3267 11.0569 26.3267 11.3929C26.3267 11.7529 26.4707 12.0289 26.7587 12.2209C27.0467 12.4129 27.3947 12.5509 27.8027 12.6349C28.2227 12.7069 28.8167 12.7789 29.5847 12.8509C30.2207 12.9349 30.7367 13.0369 31.1327 13.1569C31.5407 13.2769 31.8827 13.5109 32.1587 13.8589C32.4347 14.1949 32.5727 14.6809 32.5727 15.3169C32.5727 15.9769 32.2667 16.4989 31.6547 16.8829C31.0427 17.2549 30.3107 17.4409 29.4587 17.4409C28.3667 17.4409 27.3887 17.2549 26.5247 16.8829C25.6727 16.5109 25.1747 15.9829 25.0307 15.2989ZM35.3049 17.4409C35.0289 17.4409 34.8069 17.0389 34.6389 16.2349C34.4709 15.4189 34.3629 14.7169 34.3149 14.1289C34.2669 13.5409 34.2009 12.6109 34.1169 11.3389C34.1049 11.1349 34.0989 10.8709 34.0989 10.5469C34.0989 10.1389 34.1289 9.85685 34.1889 9.70085C34.2609 9.54485 34.3749 9.46685 34.5309 9.46685C34.6629 9.46685 34.7649 9.49685 34.8369 9.55685C34.9209 9.60485 34.9929 9.68885 35.0529 9.80885L35.0349 10.5289C35.0349 11.2969 35.0709 12.0229 35.1429 12.7069C35.2269 13.3909 35.3529 14.3089 35.5209 15.4609C35.6169 15.9649 35.6829 16.3789 35.7189 16.7029C35.7429 16.8709 35.7129 17.0389 35.6289 17.2069C35.5449 17.3629 35.4369 17.4409 35.3049 17.4409ZM34.8549 7.54085C34.5909 7.54085 34.3929 7.43885 34.2609 7.23485C34.1409 7.03085 34.0809 6.77885 34.0809 6.47885C34.0809 6.34685 34.0869 6.25085 34.0989 6.19085C34.0869 5.99885 34.1949 5.90285 34.4229 5.90285C34.5909 5.90285 34.7589 5.94485 34.9269 6.02885C35.1069 6.10085 35.1609 6.15485 35.0889 6.19085C35.2089 6.50285 35.2689 6.74885 35.2689 6.92885C35.2689 7.08485 35.2329 7.21085 35.1609 7.30685C35.0889 7.39085 34.9869 7.46885 34.8549 7.54085ZM41.0593 17.4409C40.3513 17.4409 39.7093 17.2849 39.1333 16.9729C38.5693 16.6489 38.1253 16.2049 37.8013 15.6409C37.4893 15.0649 37.3333 14.4109 37.3333 13.6789C37.3333 12.4789 37.7713 11.5849 38.6473 10.9969C39.5353 10.4089 40.6213 10.1149 41.9053 10.1149C42.4933 10.1149 43.0393 10.2589 43.5433 10.5469C44.0593 10.8349 44.4733 11.2489 44.7853 11.7889C45.0973 12.3289 45.2533 12.9529 45.2533 13.6609C45.2533 14.4289 45.0553 15.1009 44.6593 15.6769C44.2633 16.2409 43.7413 16.6789 43.0933 16.9909C42.4573 17.2909 41.7793 17.4409 41.0593 17.4409ZM40.8613 16.4149C41.9773 16.4149 42.8233 16.1629 43.3993 15.6589C43.9753 15.1549 44.2633 14.4169 44.2633 13.4449C44.2633 12.7849 44.0353 12.2149 43.5793 11.7349C43.1353 11.2549 42.5113 11.0149 41.7073 11.0149C41.1673 11.0149 40.6213 11.1169 40.0693 11.3209C39.5173 11.5249 39.0613 11.8309 38.7013 12.2389C38.3413 12.6469 38.1613 13.1389 38.1613 13.7149C38.1613 14.1949 38.2813 14.6449 38.5213 15.0649C38.7613 15.4729 39.0853 15.8029 39.4933 16.0549C39.9133 16.2949 40.3693 16.4149 40.8613 16.4149ZM48.3948 17.4949C48.2268 17.5429 48.1308 17.5669 48.1068 17.5669C48.0108 17.5669 47.9088 17.5189 47.8008 17.4229C47.4048 16.8349 47.1168 15.8089 46.9368 14.3449C46.7688 12.8809 46.6848 11.6209 46.6848 10.5649C46.6848 10.3969 46.8048 10.3129 47.0448 10.3129C47.4048 10.3129 47.5848 10.5109 47.5848 10.9069C47.5848 11.0149 47.5788 11.1049 47.5668 11.1769C47.6748 10.9249 47.8788 10.6669 48.1788 10.4029C48.4788 10.1389 48.8268 9.91685 49.2228 9.73685C49.6188 9.55685 50.0208 9.46685 50.4288 9.46685C51.7128 9.46685 52.6488 10.0369 53.2368 11.1769C53.8248 12.3049 54.1188 13.7089 54.1188 15.3889C54.1188 15.9649 54.0588 16.4269 53.9388 16.7749C53.8188 17.1109 53.6568 17.2789 53.4528 17.2789C53.2368 17.2789 53.1288 17.2129 53.1288 17.0809C53.2128 16.4449 53.2548 15.8209 53.2548 15.2089C53.2548 13.6609 52.9848 12.4909 52.4448 11.6989C51.9048 10.8949 51.1908 10.4929 50.3028 10.4929C49.8708 10.4929 49.4508 10.6009 49.0428 10.8169C48.6468 11.0329 48.3228 11.3329 48.0708 11.7169C47.8308 12.1009 47.7108 12.5389 47.7108 13.0309C47.7108 13.5829 47.7408 14.0629 47.8008 14.4709C47.8608 14.8789 47.9568 15.3709 48.0888 15.9469C48.2328 16.5109 48.3348 17.0269 48.3948 17.4949ZM55.6518 15.2989C55.8198 15.1669 55.9818 15.1009 56.1378 15.1009C56.2818 15.1009 56.4198 15.1429 56.5518 15.2269C56.6958 15.3109 56.8398 15.4189 56.9838 15.5509C57.1278 15.6709 57.2418 15.7609 57.3258 15.8209C57.6018 16.0369 57.9798 16.2049 58.4598 16.3249C58.9398 16.4449 59.4498 16.5049 59.9898 16.5049C60.6018 16.5049 61.1478 16.3909 61.6278 16.1629C62.1198 15.9229 62.3658 15.6049 62.3658 15.2089C62.3658 14.8489 62.2338 14.5669 61.9698 14.3629C61.7058 14.1469 61.3878 13.9909 61.0158 13.8949C60.6438 13.7989 60.1518 13.7089 59.5398 13.6249C58.7118 13.5289 58.0518 13.4089 57.5598 13.2649C57.0798 13.1209 56.6958 12.8869 56.4078 12.5629C56.1198 12.2269 55.9758 11.7589 55.9758 11.1589C55.9758 10.5109 56.2818 10.0309 56.8938 9.71885C57.5058 9.39485 58.2078 9.23285 58.9998 9.23285C59.7198 9.23285 60.3318 9.38885 60.8358 9.70085C61.3518 10.0009 61.6158 10.4329 61.6278 10.9969C61.6518 11.3209 61.6038 11.5789 61.4838 11.7709C61.3638 11.9509 61.2198 12.0409 61.0518 12.0409C60.9558 12.0409 60.8718 12.0049 60.7998 11.9329C60.7398 11.8609 60.7098 11.7649 60.7098 11.6449C60.7098 11.4529 60.7758 11.2429 60.9078 11.0149C60.8478 10.7269 60.6498 10.5109 60.3138 10.3669C59.9898 10.2229 59.5998 10.1509 59.1438 10.1509C58.4718 10.1509 57.9378 10.2769 57.5418 10.5289C57.1458 10.7689 56.9478 11.0569 56.9478 11.3929C56.9478 11.7529 57.0918 12.0289 57.3798 12.2209C57.6678 12.4129 58.0158 12.5509 58.4238 12.6349C58.8438 12.7069 59.4378 12.7789 60.2058 12.8509C60.8418 12.9349 61.3578 13.0369 61.7538 13.1569C62.1618 13.2769 62.5038 13.5109 62.7798 13.8589C63.0558 14.1949 63.1938 14.6809 63.1938 15.3169C63.1938 15.9769 62.8878 16.4989 62.2758 16.8829C61.6638 17.2549 60.9318 17.4409 60.0798 17.4409C58.9878 17.4409 58.0098 17.2549 57.1458 16.8829C56.2938 16.5109 55.7958 15.9829 55.6518 15.2989Z" fill="#233869"/>
<path d="M76.2772 12.9366C80.6365 12.7735 85.0966 13.646 88.9956 15.6305C90.7025 16.5007 92.2608 17.714 93.2381 19.3901C94.1957 21.0342 94.6481 22.9119 94.7734 24.798C94.9479 27.3988 94.4913 30.011 94.065 32.5658C94.0101 32.8997 94.3132 33.2154 94.6319 33.2438C94.9905 33.2759 95.2551 33.0108 95.31 32.6769C96.0392 28.3044 96.7435 23.5632 94.6779 19.4282C92.6889 15.4481 88.2724 13.553 84.1704 12.5217C81.6271 11.883 79.0124 11.5944 76.3909 11.6917C76.0509 11.704 75.7429 11.8924 75.7103 12.2585C75.6832 12.5623 75.9373 12.9489 76.2772 12.9366Z" fill="#233869"/>
<path d="M94.9724 32.0166C93.0762 29.8369 91.1825 27.6574 89.286 25.4801C88.7579 24.8733 87.7979 25.6736 88.3259 26.283C90.2223 28.4602 92.1162 30.6372 94.0125 32.8169C94.5406 33.4238 95.5005 32.6235 94.9724 32.0166Z" fill="#233869"/>
<path d="M95.2462 33.1134C97.3678 31.1091 99.4892 29.1073 101.611 27.103C102.195 26.5527 101.394 25.5902 100.808 26.1428C98.6864 28.1471 96.565 30.1489 94.4434 32.1532C93.8619 32.7062 94.6595 33.6684 95.2462 33.1134Z" fill="#233869"/>
</svg>
